<?xml version="1.0" encoding="utf-8"?>
<!-- Generator: Adobe Illustrator 22.1.0, SVG Export Plug-In . SVG Version: 6.00 Build 0)  -->
<svg version="1.1" id="Capa_1" xmlns="http://www.w3.org/2000/svg" xmlns:xlink="http://www.w3.org/1999/xlink" x="0px" y="0px"
	 viewBox="0 0 67.1 14.4" style="enable-background:new 0 0 67.1 14.4;" xml:space="preserve">
<style type="text/css">
	.st0{fill:#3359F1;}
	.st1{fill:#341EEF;}
</style>
<g>
	<g>
		<g>
			<g>
				<g>
					<g>
						<path class="st0" d="M65.3,3.7h0.4c0.3,0,0.5,0.1,0.5,0.4v0c0,0.2-0.1,0.3-0.3,0.4L66.4,5h-0.3l-0.3-0.5h-0.2V5h-0.2V3.7z
							 M65.8,4.3c0.2,0,0.3-0.1,0.3-0.2v0c0-0.2-0.1-0.2-0.3-0.2h-0.2v0.4H65.8z"/>
					</g>
				</g>
			</g>
			<g>
				<g>
					<path class="st0" d="M66.9,4.4L66.9,4.4c0.1-1-1-1.6-2-1c0,0-0.1,0.1-0.1,0.1c-0.7,1,0,2.1,1,2.1C66.4,5.6,67,5.1,66.9,4.4
						L66.9,4.4L66.9,4.4c-0.1,0.3-0.2,0.6-0.4,0.8c-0.2,0.2-0.5,0.3-0.8,0.3c-0.3,0-0.6-0.1-0.8-0.3c-0.2-0.2-0.3-0.5-0.3-0.8
						c0-0.3,0.1-0.6,0.3-0.8c0.2-0.2,0.5-0.3,0.8-0.3c0.3,0,0.6,0.1,0.8,0.3C66.7,3.8,66.8,4.1,66.9,4.4L66.9,4.4z"/>
				</g>
			</g>
		</g>
		<g>
			<g>
				<g>
					<path class="st0" d="M15.9,3.6h1.5v8.1h-1.5V3.6z"/>
				</g>
			</g>
			<g>
				<g>
					<path class="st0" d="M19.2,5.8h1.4v0.9c0.3-0.6,0.9-1.1,1.9-1.1c1.2,0,2,0.7,2,2.3v3.7h-1.4V8.1c0-0.9-0.4-1.3-1.2-1.3
						c-0.8,0-1.4,0.5-1.4,1.4v3.5h-1.4V5.8z"/>
				</g>
			</g>
			<g>
				<g>
					<path class="st0" d="M26,7.7c0.1-0.8,0.2-1.4,0.2-1.9h2c0,0.3,0,0.6-0.1,1c0.4-0.6,1.1-1.1,2-1.1c0.8,0,1.3,0.4,1.5,1.1
						c0.6-0.8,1.3-1.1,2-1.1c1.1,0,1.9,0.7,1.6,2.4l-0.6,3.7h-2l0.5-3.5c0.1-0.7-0.1-1-0.6-1c-0.5,0-0.9,0.4-1,1.1l-0.5,3.4h-2
						l0.5-3.5c0.1-0.7-0.1-1-0.6-1c-0.6,0-0.9,0.4-1,1.1l-0.5,3.4h-2L26,7.7z"/>
				</g>
			</g>
			<g>
				<g>
					<path class="st0" d="M39.1,10.4c0.6,0,0.9-0.3,1.1-0.7h1.9c-0.3,1.4-1.4,2.1-3,2.1c-1.7,0-3-0.9-3-2.7c0-2.1,1.4-3.5,3.4-3.5
						c1.9,0,3.1,1.2,2.8,3.3l0,0.3H38v0C38,9.9,38.3,10.4,39.1,10.4z M38.2,8h2.1c0.1-0.7-0.2-1.1-0.9-1.1C38.9,6.9,38.4,7.2,38.2,8
						z"/>
				</g>
			</g>
			<g>
				<g>
					<path class="st0" d="M43.3,7.7c0.1-0.8,0.2-1.4,0.2-1.9h2c0,0.3,0,0.8-0.1,1.3c0.5-0.9,1.1-1.3,2.2-1.3l-0.3,1.9
						c-1.2,0-2,0.3-2.1,1.5l-0.4,2.6h-2L43.3,7.7z"/>
				</g>
			</g>
			<g>
				<g>
					<path class="st0" d="M47.4,9.8h1.9c0,0.4,0.2,0.7,0.8,0.7c0.5,0,0.7-0.2,0.7-0.5c0-0.3-0.2-0.4-1-0.6c-1.3-0.3-1.9-0.8-1.9-1.8
						c0-1.4,1.1-2.1,2.7-2.1c1.4,0,2.4,0.5,2.5,1.9h-1.8c0-0.3-0.3-0.6-0.7-0.6c-0.5,0-0.7,0.2-0.7,0.4c0,0.3,0.3,0.4,0.9,0.5
						c1.5,0.3,2.1,0.7,2.1,1.9c0,1.4-1.2,2.1-2.8,2.1C48.4,11.8,47.4,11.2,47.4,9.8z"/>
				</g>
			</g>
			<g>
				<g>
					<path class="st0" d="M53.4,10.2c0-1.6,1.2-2.1,3.1-2.1h0.9l0-0.2c0.1-0.6,0-0.9-0.7-0.9c-0.5,0-0.8,0.3-0.9,0.7h-1.9
						c0.3-1.4,1.3-2.1,2.9-2.1c1.9,0,2.8,0.8,2.6,2.6l-0.3,1.6c-0.1,0.8-0.2,1.3-0.1,1.8h-2c0-0.2,0-0.5,0-0.7
						c-0.4,0.5-0.9,0.9-1.8,0.9C54.2,11.8,53.4,11.2,53.4,10.2z M57.1,9.6l0.1-0.4h-0.6c-0.8,0-1.2,0.2-1.2,0.7
						c0,0.3,0.2,0.6,0.7,0.6C56.6,10.5,57,10.1,57.1,9.6z"/>
				</g>
			</g>
			<g>
				<g>
					<path class="st0" d="M61.4,3.2h2L62,11.7h-2L61.4,3.2z"/>
				</g>
			</g>
		</g>
		<g>
			<g>
				<polygon class="st0" points="6.9,10.5 6.9,8.4 6.9,6.3 5.4,6.3 5.4,10.5 5.4,12 5.4,14.2 6.9,14.2 6.9,13.4 6.9,12 				"/>
			</g>
			<g>
				<path class="st1" d="M6.2,1.8C6.2,1.8,6.2,1.8,6.2,1.8L6.2,1.8L6.2,1.8C6.1,1.8,6.1,1.8,6.2,1.8z"/>
				<g>
					<g>
						<path class="st0" d="M12.1,3.9c0-0.6-0.4-1.2-0.9-1.5l0,0l-4.2-2C6.6,0.3,6.4,0.2,6.2,0.2c-0.2,0-0.5,0.1-0.7,0.2l-4.2,2l0,0
							C0.6,2.7,0.2,3.3,0.2,3.9l0,6.1c0,0.5,0.2,0.9,0.5,1.2c0.3,0.3,0.7,0.5,1.2,0.5h2.4V5.6l1.8-0.9l0,0l0,0L8,5.6v6.1h2.4
							c0.5,0,0.9-0.2,1.2-0.5c0.3-0.3,0.5-0.7,0.5-1.2L12.1,3.9z M4.2,5.7L4.2,5.7L4.2,5.7L4.2,5.7z M8.1,5.7L8.1,5.7L8.1,5.7
							L8.1,5.7z M10.5,10.1C10.5,10.1,10.4,10.2,10.5,10.1l-1,0V5.5c0-0.5-0.3-1-0.7-1.2l0,0l-2.1-1C6.5,3.2,6.3,3.2,6.2,3.2
							c0,0,0,0,0,0s0,0,0,0c-0.2,0-0.3,0-0.5,0.1l-2.1,1l0,0C3.1,4.5,2.8,5,2.8,5.5v4.7H1.9c0,0-0.1,0-0.1,0c0,0,0-0.1,0-0.1l0-6.1
							c0-0.1,0-0.1,0.1-0.1l0,0l4.3-2.1l4.3,2.1l0,0c0,0,0.1,0.1,0.1,0.1L10.5,10.1C10.5,10.1,10.5,10.1,10.5,10.1z"/>
					</g>
				</g>
			</g>
		</g>
	</g>
</g>
</svg>
